<?xml version="1.0" encoding="utf-8"?>
<!-- Svg Vector Icons : http://www.onlinewebfonts.com/icon -->
<!DOCTYPE svg PUBLIC "-//W3C//DTD SVG 1.1//EN" "http://www.w3.org/Graphics/SVG/1.1/DTD/svg11.dtd">
<svg version="1.1" xmlns="http://www.w3.org/2000/svg" xmlns:xlink="http://www.w3.org/1999/xlink" x="0px" y="0px" viewBox="0 0 1000 1000" enable-background="new 0 0 1000 1000" xml:space="preserve">
<metadata> Svg Vector Icons : http://www.onlinewebfonts.com/icon </metadata>
<g><g><path d="M55.3,294.9l431.1,230.5c4.3,2.3,8.9,3.4,13.6,3.4c4.7,0,9.4-1.1,13.6-3.4l431.1-230.5c9.4-5,15.3-14.8,15.3-25.5c0-10.7-5.9-20.5-15.3-25.5L513.6,13.4c-8.5-4.6-18.7-4.6-27.3,0L55.3,243.9c-9.4,5-15.3,14.8-15.3,25.5C40,280.1,45.9,289.9,55.3,294.9z M500,71.7l369.8,197.7L500,467.2L130.2,269.4L500,71.7z"/><path d="M944.7,474.6L819,407.4c-14.1-7.5-31.6-2.2-39.1,11.9c-7.5,14.1-2.2,31.6,11.9,39.1l78,41.7L500,697.8L130.2,500.1l78.9-42.2c14.1-7.5,19.4-25,11.9-39.1c-7.5-14.1-25-19.4-39.1-11.9L55.3,474.6c-9.4,5-15.3,14.8-15.3,25.5c0,10.7,5.9,20.5,15.3,25.5l431.1,230.5c4.3,2.3,8.9,3.4,13.6,3.4c4.7,0,9.4-1.1,13.6-3.4l431.1-230.5c9.4-5,15.3-14.8,15.3-25.5C960,489.4,954.1,479.6,944.7,474.6z"/><path d="M944.7,705.1L823,640c-14.1-7.5-31.6-2.2-39.1,11.9c-7.5,14.1-2.2,31.6,11.9,39.1l74,39.6L500,928.3L130.2,730.6l73.2-39.2c14.1-7.5,19.4-25,11.9-39.1s-25-19.4-39.1-11.9L55.3,705.1c-9.4,5-15.3,14.8-15.3,25.5c0,10.7,5.9,20.5,15.3,25.5l431.1,230.5c4.3,2.3,8.9,3.4,13.6,3.4c4.7,0,9.4-1.1,13.6-3.4l431.1-230.5c9.4-5,15.3-14.8,15.3-25.5C960,719.9,954.1,710.1,944.7,705.1z"/></g><g></g><g></g><g></g><g></g><g></g><g></g><g></g><g></g><g></g><g></g><g></g><g></g><g></g><g></g><g></g></g>
</svg>